<?xml version="1.0" encoding="iso-8859-1"?>
<!-- Generator: Adobe Illustrator 16.0.0, SVG Export Plug-In . SVG Version: 6.00 Build 0)  -->
<!DOCTYPE svg PUBLIC "-//W3C//DTD SVG 1.1//EN" "http://www.w3.org/Graphics/SVG/1.1/DTD/svg11.dtd">
<svg version="1.1" id="Capa_1" xmlns="http://www.w3.org/2000/svg" xmlns:xlink="http://www.w3.org/1999/xlink" x="0px" y="0px"
	 width="32.03px" height="32.03px" viewBox="0 0 32.03 32.03" style="enable-background:new 0 0 32.03 32.03;" xml:space="preserve"
	>
<g>
	<g>
		<circle cx="8.676" cy="3.31" r="3.31"/>
		<path d="M10.3,6.98l-0.787,0.33C9.354,7.033,9.06,6.845,8.716,6.845c-0.343,0-0.635,0.184-0.8,0.458L7.132,6.967
			C7.016,6.92,6.924,6.928,6.82,6.998c-0.104,0.07-0.128,0.185-0.128,0.309v0.979c0,0.12,0.015,0.23,0.11,0.299
			c0.097,0.069,0.171,0.091,0.285,0.059c0.309-0.096,0.69-0.212,0.911-0.279C8.168,8.57,8.425,8.702,8.716,8.702
			c0.275,0,0.529-0.123,0.699-0.318c0.221,0.068,0.615,0.184,0.929,0.279c0.112,0.032,0.236,0.012,0.335-0.06
			c0.093-0.07,0.157-0.18,0.157-0.297V7.322c0-0.126-0.072-0.241-0.178-0.311C10.556,6.943,10.413,6.931,10.3,6.98z"/>
		<path d="M31.345,3.899V2.833l-14.96,0.021v1.044l1.074,0.009h0.007l-0.027,5.838v0.002c0,0.031-0.079,0.065-0.123,0.104
			l-2.626,2.337l-3.277-4.036L8.674,11.72L5.901,7.887c-1.317,0.905-3.124,3.06-3.628,7.856c-0.001,0-0.001,0.018-0.002,0.023
			c-0.01,0.097-0.02,0.193-0.028,0.292c-0.001,0.015-0.003,0.029-0.003,0.043c-0.001,0.014-0.003,0.027-0.004,0.043l-1.551,0.619
			l1.61,4.026L3,20.508c-0.511-0.265-0.86-0.785-0.864-1.369c0-0.156,0-0.308,0.002-0.461c0.041,0.711,0.625,1.314,1.34,1.314h0.001
			c0.744,0,1.44-0.646,1.44-1.391c-0.001-0.672-0.003-1.301,0.019-1.879c0.036-0.896,0.07-1.493,0.296-2.173
			c0.064-0.19,0.082-0.312,0.17-0.487l2.132-0.757l1.818,4.549l-0.57,0.229l-1.572-3.928l-1.397,0.558
			c-0.337,1.2-0.347,2.667-0.34,4.421c0,0.142,0.276,0.586,0.346,0.715v10.863c0,0.742,0.615,1.317,1.353,1.317
			c0.742,0,1.354-0.521,1.354-1.36h0.356c0,0.84,0.687,1.36,1.429,1.36c0.74,0,1.429-0.571,1.429-1.312l0.001-10.867
			c0.303-0.498,0.303-1.082,0.304-1.706V13.16l1.459,1.81c0.233,0.283,0.579,0.46,0.943,0.487c0.034,0.005,0.062,0.007,0.097,0.007
			c0.327,0,0.642-0.111,0.887-0.332l1.181-1.039l0.85-0.009l-0.001,8.311h-1.066v1.065h1.066v8.172l12.8,0.002l0.001-8.172h1.066
			v-1.066h-1.066l0.001-8.314l0,0l1.065-0.002l0.015-1.067l-1.054-0.002l0,0L30.28,3.909h-0.008L31.345,3.899z M26.007,26.877
			h-4.285v-2.18h4.285V26.877z M21.723,18.096v-2.107h4.285v2.107H21.723z M26.007,8.402h-4.285V6.225h4.285V8.402z"/>
	</g>
</g>
<g>
</g>
<g>
</g>
<g>
</g>
<g>
</g>
<g>
</g>
<g>
</g>
<g>
</g>
<g>
</g>
<g>
</g>
<g>
</g>
<g>
</g>
<g>
</g>
<g>
</g>
<g>
</g>
<g>
</g>
</svg>
