<?xml version="1.0" encoding="iso-8859-1"?>
<!-- Generator: Adobe Illustrator 18.0.0, SVG Export Plug-In . SVG Version: 6.00 Build 0)  -->
<!DOCTYPE svg PUBLIC "-//W3C//DTD SVG 1.1//EN" "http://www.w3.org/Graphics/SVG/1.1/DTD/svg11.dtd">
<svg version="1.1" id="Capa_1" xmlns="http://www.w3.org/2000/svg" xmlns:xlink="http://www.w3.org/1999/xlink" x="0px" y="0px"
	 viewBox="0 0 295.638 295.638" style="enable-background:new 0 0 295.638 295.638;" xml:space="preserve">
<g>
	<path d="M149.304,246.038h-90.64c-5.126,0-9.282,4.156-9.282,9.282v24.811c0,5.126,4.156,9.282,9.282,9.282h90.64
		c5.126,0,9.282-4.156,9.282-9.282V255.32C158.586,250.193,154.431,246.038,149.304,246.038z"/>
	<path d="M84.066,230.774h29.677c25.288,0,44.843-20.937,44.843-44.221c0-42.97,0-62.134,0-67.468
		c0-8.373-6.788-15.161-15.161-15.161c-5.45,0-10.215,2.886-12.887,7.203v-4.929c0-8.373-6.788-15.161-15.161-15.161
		c-5.451,0-10.216,2.886-12.888,7.204v-3.414c0-8.373-6.788-15.161-15.161-15.161c-5.451,0-10.216,2.887-12.888,7.204V41.004
		c0-8.373-6.788-15.161-15.161-15.161c-8.373,0-15.161,6.788-15.161,15.161V155.06l-17.001-21.798
		c-5.148-6.602-14.677-7.78-21.279-2.631c-6.602,5.149-7.78,14.677-2.631,21.279l47.664,61.113
		C58.046,223.719,70.247,230.774,84.066,230.774z"/>
	<path d="M292.709,70.208l-21.275-21.275c-3.906-3.904-10.236-3.904-14.142,0c-3.905,3.905-3.905,10.237,0,14.143l4.204,4.204
		h-26.912V40.367l4.204,4.204c1.953,1.952,4.512,2.929,7.071,2.929c2.56,0,5.118-0.977,7.071-2.929
		c3.905-3.905,3.905-10.237,0-14.143L231.654,9.153c-3.906-3.904-10.236-3.904-14.143,0l-21.275,21.275
		c-3.905,3.905-3.905,10.237,0,14.143c3.906,3.904,10.236,3.904,14.143,0l4.204-4.204v26.912h-26.912l4.204-4.204
		c3.905-3.905,3.905-10.237,0-14.143c-3.906-3.904-10.236-3.904-14.143,0l-21.275,21.275c-3.905,3.905-3.905,10.237,0,14.143
		l21.275,21.275c1.953,1.952,4.512,2.929,7.071,2.929c2.559,0,5.118-0.977,7.071-2.929c3.905-3.905,3.905-10.237,0-14.143
		l-4.204-4.204h26.912v26.912l-4.204-4.204c-3.906-3.904-10.236-3.904-14.143,0c-3.905,3.905-3.905,10.237,0,14.143l21.275,21.275
		c1.953,1.952,4.512,2.929,7.071,2.929c2.559,0,5.118-0.977,7.071-2.929l21.275-21.275c3.905-3.905,3.905-10.237,0-14.143
		c-3.906-3.904-10.236-3.904-14.143,0l-4.204,4.204V87.279h26.912l-4.204,4.204c-3.905,3.905-3.905,10.237,0,14.143
		c1.953,1.952,4.512,2.929,7.071,2.929c2.56,0,5.118-0.977,7.071-2.929l21.275-21.275C296.614,80.445,296.614,74.113,292.709,70.208
		z"/>
</g>
<g>
</g>
<g>
</g>
<g>
</g>
<g>
</g>
<g>
</g>
<g>
</g>
<g>
</g>
<g>
</g>
<g>
</g>
<g>
</g>
<g>
</g>
<g>
</g>
<g>
</g>
<g>
</g>
<g>
</g>
</svg>
